<?xml version="1.0" standalone="no"?>
<!DOCTYPE svg PUBLIC "-//W3C//DTD SVG 20010904//EN"
 "http://www.w3.org/TR/2001/REC-SVG-20010904/DTD/svg10.dtd">
<svg version="1.0" xmlns="http://www.w3.org/2000/svg"
 width="932.000000pt" height="932.000000pt" viewBox="0 0 932.000000 932.000000"
 preserveAspectRatio="xMidYMid meet">
<metadata>
Created by potrace 1.14, written by Peter Selinger 2001-2017
</metadata>
<g transform="translate(0.000000,932.000000) scale(0.100000,-0.100000)"
fill="#000000" stroke="none">
<path d="M4350 9277 c-19 -12 -41 -28 -48 -37 -17 -21 -149 -295 -153 -318 -1
-4 -10 -19 -20 -34 -10 -14 -19 -29 -19 -32 0 -3 -26 -60 -59 -128 -115 -241
-141 -299 -141 -308 0 -6 -4 -10 -10 -10 -5 0 -10 -4 -10 -9 0 -11 -46 -111
-136 -296 -32 -66 -58 -122 -59 -125 -1 -3 -28 -59 -60 -125 -32 -66 -59 -122
-60 -125 -1 -3 -21 -45 -45 -95 -24 -49 -44 -92 -45 -95 0 -3 -25 -54 -54
-115 -30 -60 -78 -162 -108 -225 -31 -63 -76 -158 -101 -210 -25 -52 -46 -97
-47 -100 -2 -10 -96 -205 -106 -220 -5 -8 -12 -22 -15 -30 -3 -8 -27 -60 -54
-115 -66 -136 -124 -259 -125 -265 -1 -3 -27 -57 -57 -120 -30 -63 -73 -153
-96 -200 -22 -47 -79 -165 -126 -263 -47 -99 -86 -180 -86 -182 0 -1 -38 -81
-84 -176 -151 -314 -204 -426 -226 -478 -13 -28 -26 -51 -30 -51 -3 0 -7 -6
-7 -12 0 -7 -29 -71 -64 -143 -35 -71 -64 -132 -64 -135 0 -3 -9 -21 -20 -40
-10 -19 -20 -41 -21 -47 -1 -7 -14 -34 -28 -59 -14 -26 -26 -53 -26 -60 0 -8
-5 -14 -12 -14 -6 0 -8 -3 -5 -7 4 -3 0 -15 -10 -25 -9 -10 -13 -18 -10 -18 4
0 -9 -30 -29 -67 -20 -38 -36 -69 -35 -70 0 -3 -79 -170 -165 -348 -31 -66
-58 -122 -59 -125 0 -3 -27 -59 -59 -125 -32 -66 -71 -147 -86 -180 -15 -33
-55 -118 -89 -188 -34 -71 -61 -133 -61 -138 0 -5 -4 -9 -10 -9 -5 0 -10 -5
-10 -11 0 -5 -19 -49 -41 -97 -23 -48 -69 -143 -102 -212 -99 -209 -111 -235
-109 -242 1 -5 -3 -8 -9 -8 -5 0 -7 -4 -4 -10 3 -6 1 -10 -4 -10 -6 0 -11 -4
-11 -9 0 -9 -52 -122 -173 -371 -59 -124 -115 -242 -196 -415 -28 -60 -56
-117 -61 -125 -6 -8 -13 -22 -16 -30 -8 -19 -61 -132 -127 -270 -28 -58 -51
-107 -52 -110 -8 -26 -50 -107 -59 -112 -6 -4 -8 -8 -4 -8 4 0 -16 -45 -43
-101 -27 -56 -51 -106 -52 -113 -1 -6 -4 -13 -7 -16 -6 -6 -44 -83 -103 -210
-25 -52 -64 -135 -87 -184 -37 -79 -41 -95 -36 -139 7 -57 32 -97 79 -125 41
-24 15 -23 974 -25 414 -1 753 -6 753 -10 0 -5 5 -5 12 -1 6 4 97 7 202 7
3543 -16 3297 -19 3357 38 48 46 49 54 46 549 l-2 465 -1837 0 c-1011 0 -1838
1 -1838 2 0 2 4 11 9 21 6 9 22 46 38 82 15 36 32 68 38 72 5 4 7 8 3 8 -4 0
19 55 51 123 32 67 69 147 83 177 14 30 38 82 54 115 15 33 28 62 29 65 0 3 9
20 18 38 10 17 14 32 10 32 -5 0 -3 4 2 8 6 4 39 70 75 147 86 189 125 273
177 385 25 52 52 113 60 135 9 22 19 45 24 50 4 6 61 127 127 270 66 143 137
296 157 340 66 143 94 204 126 273 17 37 47 101 66 142 55 118 76 165 78 170
4 13 30 66 35 70 3 3 6 10 7 16 1 6 23 56 49 110 25 55 57 124 71 154 14 30
41 88 59 128 19 39 50 107 70 150 19 42 48 104 64 137 15 33 37 80 48 105 11
25 42 90 67 145 26 55 46 101 46 103 -1 1 17 38 38 81 22 43 37 81 34 85 -4 3
-1 6 5 6 7 0 12 5 12 11 0 5 27 67 60 136 33 69 60 131 60 139 0 8 5 14 10 14
6 0 10 9 10 20 0 11 5 20 10 20 6 0 10 6 10 14 0 8 11 36 24 63 14 26 39 80
57 118 17 39 46 102 64 140 18 39 43 93 55 120 12 28 47 101 76 164 30 62 54
115 54 117 0 2 21 47 46 101 67 143 99 211 127 273 14 30 61 133 105 228 44
94 77 172 74 172 -4 0 -2 4 4 8 9 5 48 81 59 112 2 7 23 54 35 83 5 12 14 29
19 37 5 8 18 35 29 60 62 134 92 200 91 203 0 1 17 36 37 77 21 41 39 81 40
89 2 8 8 17 14 21 7 4 11 9 9 11 -5 8 23 79 31 79 5 0 12 15 15 33 4 17 13 39
19 47 7 8 23 40 36 70 21 52 43 99 136 295 20 44 38 82 38 85 1 3 13 30 28 60
14 30 40 84 56 120 140 304 161 350 161 353 0 1 18 39 40 84 23 46 41 90 41
98 0 8 4 15 9 15 5 0 13 10 17 23 6 21 27 68 101 227 19 41 41 90 49 108 l14
32 -582 0 c-582 -1 -583 -1 -618 -23z"/>
<path d="M5840 9195 c-17 -39 -49 -107 -71 -153 -21 -45 -39 -84 -39 -86 0 -3
-22 -52 -50 -111 -27 -59 -50 -108 -50 -110 0 -1 -20 -45 -44 -96 -24 -52 -54
-116 -66 -144 -12 -27 -35 -77 -50 -110 -68 -148 -123 -269 -125 -275 -2 -7
-30 -68 -105 -230 -81 -176 -103 -224 -105 -230 0 -3 -13 -30 -27 -60 -33 -70
-42 -93 -40 -102 1 -5 -2 -8 -8 -8 -5 0 -10 -4 -10 -9 0 -6 -18 -48 -40 -95
-22 -47 -40 -87 -40 -90 0 -2 -20 -47 -45 -100 -25 -53 -65 -139 -90 -192 -25
-53 -48 -107 -51 -120 -3 -13 -10 -24 -15 -24 -5 0 -9 -6 -9 -13 0 -7 -11 -37
-25 -65 -14 -28 -26 -57 -27 -64 -2 -7 -6 -15 -9 -18 -4 -3 -19 -34 -34 -70
-15 -36 -42 -96 -60 -135 -18 -38 -42 -90 -53 -115 -11 -25 -39 -85 -61 -133
-23 -49 -41 -90 -41 -92 0 -3 -19 -42 -42 -87 l-42 -83 -1 -2268 c0 -1247 2
-2271 5 -2275 3 -4 247 -8 543 -7 l537 0 1 60 c3 403 3 4015 -1 4015 -3 0 -5
95 -5 211 0 116 -3 216 -7 222 -3 6 -2 21 3 34 5 12 5 23 1 23 -4 0 -8 66 -9
148 -3 208 -9 348 -17 360 -3 6 -2 13 4 17 6 4 8 10 5 15 -3 5 -8 58 -10 117
-6 139 8 175 86 222 61 38 148 22 200 -35 14 -16 40 -69 58 -119 36 -99 42
-118 43 -125 0 -3 9 -27 20 -55 11 -27 27 -72 35 -100 8 -27 18 -54 22 -60 4
-5 14 -30 21 -55 7 -25 16 -49 19 -55 3 -5 6 -12 7 -15 0 -3 3 -12 6 -20 4 -8
23 -62 43 -120 67 -191 97 -274 117 -330 11 -30 21 -59 22 -65 2 -5 7 -21 13
-35 5 -14 20 -54 32 -90 37 -104 72 -204 78 -220 3 -8 7 -19 9 -25 3 -15 64
-187 74 -210 5 -11 23 -60 40 -110 17 -49 37 -106 44 -125 7 -19 19 -51 25
-70 28 -80 110 -309 131 -365 12 -33 24 -69 27 -80 3 -11 12 -35 20 -53 8 -18
16 -40 18 -50 4 -17 62 -180 85 -237 6 -16 13 -37 15 -45 4 -17 66 -189 84
-233 6 -15 13 -39 15 -54 3 -14 10 -31 16 -37 5 -5 10 -20 10 -32 0 -13 4 -25
9 -28 5 -3 11 -16 14 -28 2 -13 23 -72 44 -133 77 -211 81 -225 76 -225 -3 0
0 -6 6 -14 6 -7 17 -33 25 -57 19 -60 85 -249 96 -274 5 -11 14 -38 21 -60 6
-22 14 -44 18 -50 3 -5 7 -14 8 -20 2 -11 33 -97 88 -250 20 -55 37 -104 39
-110 1 -5 4 -14 7 -20 4 -5 12 -28 18 -50 7 -22 16 -49 21 -60 15 -37 42 -110
46 -125 2 -8 10 -33 18 -55 54 -148 188 -523 191 -535 2 -8 4 -15 5 -15 1 0 3
-7 5 -15 2 -8 16 -46 30 -85 14 -38 44 -119 65 -180 21 -60 48 -137 59 -170
12 -33 24 -67 28 -75 3 -8 7 -19 9 -25 4 -16 80 -227 93 -258 6 -16 11 -34 11
-41 0 -7 3 -16 8 -20 4 -4 7 -11 7 -14 0 -6 40 -118 93 -262 9 -25 17 -52 18
-60 2 -8 7 -23 12 -35 6 -11 15 -36 22 -55 34 -98 53 -123 111 -148 42 -18 73
-19 539 -18 l495 2 38 24 c23 16 46 42 59 70 18 40 19 50 9 90 -7 24 -18 58
-25 75 -15 33 -29 67 -30 75 -1 3 -7 19 -13 35 -25 61 -36 90 -38 98 -2 4 -4
9 -5 12 -1 3 -3 8 -5 13 -1 4 -5 14 -8 22 -4 8 -22 58 -42 110 -19 52 -39 104
-44 115 -5 11 -18 47 -31 80 -12 33 -26 69 -31 80 -11 27 -160 417 -163 430
-2 6 -8 24 -15 40 -6 17 -25 66 -42 110 -17 44 -35 89 -39 100 -5 11 -27 70
-50 130 -22 61 -46 121 -52 135 -6 14 -12 30 -12 35 -1 6 -9 26 -17 45 -22 48
-44 113 -41 123 1 4 -2 7 -8 7 -5 0 -10 6 -10 14 0 11 -18 62 -50 141 -5 11
-27 70 -50 130 -22 61 -45 118 -50 127 -6 10 -10 22 -10 27 0 5 -8 26 -17 47
-9 22 -18 42 -19 47 -1 4 -3 9 -4 12 -1 3 -3 8 -5 13 -1 4 -5 16 -10 27 -16
43 -56 146 -104 275 -28 74 -55 144 -60 155 -5 11 -24 61 -41 110 -18 50 -39
104 -46 120 -21 51 -94 243 -94 248 0 3 -8 22 -17 43 -9 22 -18 42 -19 47 -1
4 -3 9 -4 12 -1 3 -3 8 -4 13 -1 6 -64 170 -91 237 -5 11 -9 22 -10 25 -1 3
-5 14 -10 25 -11 27 -69 180 -112 295 -20 52 -40 106 -46 120 -6 14 -11 28
-11 32 -1 3 -4 10 -8 14 -5 4 -8 13 -8 19 0 7 -8 30 -17 51 -9 22 -18 42 -19
47 -1 4 -3 9 -4 12 -1 3 -3 8 -5 13 -2 9 -15 42 -25 67 -5 11 -27 70 -50 130
-22 61 -45 121 -51 134 -5 13 -30 78 -55 145 -25 66 -56 148 -69 181 -12 33
-37 98 -55 145 -18 47 -36 94 -41 105 -10 23 -73 188 -74 195 -2 5 -19 48 -32
80 -3 8 -7 20 -8 25 -4 14 -54 143 -70 180 -8 16 -11 33 -9 37 3 4 0 8 -5 8
-6 0 -11 6 -11 13 0 6 -13 46 -29 87 -16 41 -44 113 -61 160 -17 47 -37 99
-45 115 -7 17 -17 42 -20 58 -4 15 -11 30 -16 33 -5 3 -9 15 -9 28 0 12 -4 26
-9 32 -11 11 -57 136 -53 147 1 4 -2 7 -8 7 -5 0 -10 8 -10 18 0 10 -3 22 -7
26 -4 3 -8 12 -9 19 -1 7 -8 26 -15 42 -6 17 -13 35 -15 40 -1 6 -22 62 -47
125 -24 63 -63 165 -86 225 -23 61 -46 119 -51 130 -5 11 -23 58 -40 105 -17
47 -35 94 -39 105 -5 11 -23 58 -41 105 -18 47 -36 94 -40 105 -4 11 -22 56
-38 100 -17 44 -33 89 -38 100 -4 11 -8 22 -9 25 -1 3 -5 14 -10 25 -8 20 -52
136 -107 280 -16 44 -34 89 -39 100 -9 22 -53 137 -54 145 -1 3 -9 22 -18 44
-9 21 -17 41 -17 45 0 3 -21 58 -46 121 -25 63 -48 126 -50 140 -3 13 -9 29
-14 35 -4 5 -31 73 -60 150 -29 77 -56 147 -60 155 -6 11 -17 -4 -40 -55z"/>
</g>
</svg>
