<?xml version="1.0" standalone="no"?>
<!DOCTYPE svg PUBLIC "-//W3C//DTD SVG 20010904//EN"
 "http://www.w3.org/TR/2001/REC-SVG-20010904/DTD/svg10.dtd">
<svg version="1.0" xmlns="http://www.w3.org/2000/svg"
 width="416.000000pt" height="416.000000pt" viewBox="0 0 416.000000 416.000000"
 preserveAspectRatio="xMidYMid meet">
<metadata>
Created by potrace 1.14, written by Peter Selinger 2001-2017
</metadata>
<g transform="translate(0.000000,416.000000) scale(0.100000,-0.100000)"
fill="#000000" stroke="none">
<path d="M1911 3028 c-27 -57 -78 -164 -113 -238 -107 -222 -118 -246 -118
-258 0 -9 39 -12 130 -13 72 -1 136 -2 143 -3 6 -1 28 1 47 4 31 5 35 9 36 38
l1 32 -118 0 c-66 0 -119 2 -119 5 0 2 41 93 91 202 50 109 104 226 120 261
16 34 29 65 29 67 0 3 -18 5 -40 5 l-41 0 -48 -102z"/>
<path d="M2052 3108 c-6 -13 -28 -59 -49 -103 l-37 -80 -2 -158 -2 -158 37 3
36 3 0 170 c0 94 4 172 9 175 5 3 17 -17 27 -45 39 -113 127 -361 134 -377 4
-11 18 -18 34 -18 57 0 57 4 -29 231 -148 391 -145 383 -158 357z"/>
<path d="M1679 2440 c-1 -3 -2 -47 -3 -97 l-2 -93 88 0 88 0 0 -37 c0 -21 1
-242 1 -491 l0 -452 130 1 c86 1 129 6 130 13 1 6 2 225 3 486 l1 475 87 5 86
5 -1 95 -2 95 -302 0 c-167 0 -304 -2 -304 -5z"/>
<path d="M371 2119 c-24 -5 -55 -16 -70 -25 -79 -52 -73 -49 -71 -28 5 44 4
44 -115 44 l-115 0 0 -420 0 -420 115 2 c74 1 115 5 116 12 0 6 1 154 1 329
l0 317 28 15 c37 19 65 19 84 -1 14 -13 16 -59 16 -344 l0 -328 115 0 115 0 0
328 c0 360 -2 346 62 356 62 11 62 10 63 -355 l0 -326 117 -3 116 -3 1 343 c1
378 -5 422 -56 469 -68 64 -182 57 -277 -16 l-44 -33 -13 24 c-29 54 -101 78
-188 63z"/>
<path d="M3136 2118 c-112 -16 -195 -90 -216 -194 -8 -36 -10 -131 -8 -267 3
-196 5 -215 26 -254 52 -98 127 -139 262 -142 180 -4 275 83 279 258 l2 79
-109 -1 -110 0 -1 -60 c-1 -70 -20 -107 -56 -107 -27 0 -54 23 -56 48 -4 58
-3 192 1 193 3 1 77 2 165 3 l160 1 0 130 c0 146 -10 186 -58 238 -63 68 -158
94 -281 75z m112 -193 c16 -36 16 -135 0 -136 -76 -4 -98 -2 -99 6 -5 34 2
119 11 135 17 31 73 27 88 -5z"/>
<path d="M3823 2119 c-111 -15 -190 -77 -218 -171 -22 -77 -22 -455 2 -523 22
-66 83 -126 152 -148 111 -35 259 -14 325 47 54 50 69 90 72 187 l2 87 -109 0
-109 0 0 -62 c0 -70 -18 -106 -55 -106 -24 0 -54 23 -56 43 -5 40 -7 165 -4
182 4 20 11 21 167 20 l163 0 -1 131 c0 123 -2 134 -28 188 -42 86 -92 114
-231 130 -11 1 -43 -1 -72 -5z m101 -191 c10 -14 16 -44 16 -80 l0 -58 -61 0
-60 0 4 59 c3 32 10 68 16 80 16 29 65 28 85 -1z"/>
<path d="M2725 2101 c-31 -18 -66 -55 -96 -100 -14 -23 -15 -21 -14 43 l1 67
-119 -3 -120 -3 0 -400 c1 -220 2 -408 2 -417 1 -15 14 -17 118 -15 l118 2 0
271 c0 214 3 274 14 287 40 49 120 72 179 53 22 -7 22 -7 22 113 l0 121 -37 0
c-21 0 -52 -8 -68 -19z"/>
<path d="M1020 2103 c0 -3 34 -128 76 -277 120 -425 153 -557 145 -580 -10
-26 -46 -44 -94 -48 l-37 -2 0 -85 0 -84 84 6 c127 9 197 51 237 144 10 23 39
136 64 250 26 115 49 217 52 228 2 11 9 38 13 60 21 97 81 362 86 378 5 15 -5
17 -109 17 l-114 0 -6 -37 c-6 -35 -33 -202 -55 -333 -6 -30 -10 -56 -11 -57
-1 -2 -1 -11 -1 -20 0 -28 -9 -9 -19 38 -15 72 -81 373 -87 392 -5 15 -19 17
-115 17 -60 0 -109 -3 -109 -7z"/>
</g>
</svg>
