<?xml version="1.0" standalone="no"?>
<!DOCTYPE svg PUBLIC "-//W3C//DTD SVG 20010904//EN"
 "http://www.w3.org/TR/2001/REC-SVG-20010904/DTD/svg10.dtd">
<svg version="1.0" xmlns="http://www.w3.org/2000/svg"
 width="416.000000pt" height="416.000000pt" viewBox="0 0 416.000000 416.000000"
 preserveAspectRatio="xMidYMid meet">
<metadata>
Created by potrace 1.14, written by Peter Selinger 2001-2017
</metadata>
<g transform="translate(0.000000,416.000000) scale(0.100000,-0.100000)"
fill="#000000" stroke="none">
<path d="M1932 3068 c-16 -35 -54 -115 -85 -178 -143 -301 -167 -354 -160
-361 10 -10 326 -14 342 -5 6 4 11 20 11 37 l0 29 -120 0 c-66 0 -120 2 -120
4 0 1 34 77 76 167 42 90 85 184 96 209 11 25 33 71 49 103 l28 57 -44 0 -44
0 -29 -62z"/>
<path d="M2015 3024 l-48 -99 -1 -158 -2 -158 36 3 35 3 1 165 c2 202 2 196
13 185 4 -6 40 -100 79 -210 39 -110 74 -208 77 -217 8 -19 50 -24 73 -9 10 6
-11 72 -93 286 -58 153 -110 285 -114 294 -7 11 -21 -10 -56 -85z"/>
<path d="M1679 2440 c-1 -3 -2 -47 -3 -97 l-2 -93 88 0 88 0 0 -37 c1 -21 1
-241 1 -490 l0 -452 130 1 c86 1 129 5 130 12 1 6 2 225 3 486 l1 475 87 5 86
5 -1 95 -2 95 -302 0 c-167 0 -304 -2 -304 -5z"/>
<path d="M371 2119 c-24 -5 -55 -16 -70 -25 -79 -52 -73 -49 -71 -28 5 44 4
44 -115 44 l-115 0 0 -419 0 -419 115 0 c76 1 115 5 116 12 0 6 1 154 1 329
l0 317 28 15 c37 19 65 19 84 -1 14 -13 16 -59 16 -344 l0 -328 115 0 115 0 0
328 c0 360 -2 346 62 356 62 11 62 10 63 -355 l0 -326 117 -3 116 -3 1 343 c1
378 -5 422 -56 469 -68 64 -182 57 -277 -16 l-44 -33 -13 24 c-29 54 -101 78
-188 63z"/>
<path d="M3130 2118 c-109 -19 -189 -92 -210 -194 -8 -36 -10 -131 -8 -267 3
-195 5 -215 25 -253 50 -94 114 -133 234 -141 200 -14 304 72 308 256 l2 79
-109 -1 -110 0 -1 -65 c-1 -72 -18 -102 -57 -102 -26 0 -53 24 -55 48 -4 62
-4 192 1 193 3 1 77 2 165 3 l160 1 0 130 c0 146 -10 186 -58 238 -64 69 -166
95 -287 75z m119 -191 c5 -13 11 -48 12 -77 3 -61 -4 -67 -75 -62 l-44 4 4 60
c6 80 16 98 60 98 27 0 36 -5 43 -23z"/>
<path d="M3823 2119 c-111 -15 -190 -77 -218 -171 -22 -77 -22 -455 2 -523 35
-104 136 -165 273 -165 122 0 212 46 255 130 17 33 30 166 19 195 -4 9 -36 13
-110 13 l-104 0 0 -62 c0 -70 -18 -106 -55 -106 -24 0 -54 23 -56 43 -5 40 -7
165 -4 182 4 20 11 21 167 20 l163 0 -1 131 c0 123 -2 134 -28 188 -42 86 -92
114 -231 130 -11 1 -43 -1 -72 -5z m107 -199 c5 -10 10 -44 10 -74 l0 -56 -61
0 -60 0 5 58 c5 72 13 92 40 102 25 9 51 -3 66 -30z"/>
<path d="M2725 2101 c-31 -18 -66 -55 -96 -100 -14 -23 -15 -21 -14 43 l1 67
-119 -3 -120 -3 0 -400 c1 -220 2 -408 2 -417 1 -16 13 -17 118 -15 l118 2 0
271 c0 305 -3 293 76 332 39 19 73 22 117 8 22 -7 22 -7 22 113 l0 121 -37 0
c-21 0 -52 -8 -68 -19z"/>
<path d="M1020 2103 c0 -3 34 -128 76 -277 120 -425 153 -557 145 -580 -10
-26 -46 -44 -94 -48 l-37 -2 0 -85 0 -84 84 6 c127 9 197 51 237 144 14 32 91
352 125 518 10 52 85 382 90 398 5 15 -5 17 -109 17 l-114 0 -6 -37 c-15 -99
-46 -281 -51 -303 -3 -14 -8 -45 -11 -69 -8 -69 -15 -64 -29 19 -6 36 -76 352
-82 373 -5 15 -19 17 -115 17 -60 0 -109 -3 -109 -7z"/>
</g>
</svg>
